<svg width="500" height="500" viewBox="0 0 500 500" fill="none" xmlns="http://www.w3.org/2000/svg">
<path fill-rule="evenodd" clip-rule="evenodd" d="M352.026 390.754C413.372 346.179 439.039 267.172 415.602 195.054L466.274 178.639C496.82 272.683 463.34 375.699 383.343 433.818C303.346 491.936 195.025 491.938 115.027 433.822C35.0279 375.707 1.54463 272.691 32.0869 178.646C62.6291 84.602 150.251 20.9167 249.131 20.8945V74.0137C324.977 74.0357 392.184 122.893 415.602 195.034L364.931 211.49V211.408C348.621 161.247 301.876 127.286 249.131 127.275V74.115C173.3 74.1173 106.095 122.948 82.6648 195.068C59.2344 267.188 84.908 346.193 146.258 390.762C207.608 435.332 290.68 435.328 352.026 390.754Z" fill="black"/>
</svg>
