<?xml version="1.0" encoding="UTF-8"?>
<svg width="512px" height="512px" viewBox="0 0 512 512" version="1.1" xmlns="http://www.w3.org/2000/svg" xmlns:xlink="http://www.w3.org/1999/xlink">
    <title>cor-mark</title>
    <g id="Page-1" stroke="none" stroke-width="1" fill="none" fill-rule="evenodd">
        <g id="cor-mark">
            <circle id="Oval" fill="#000000" cx="255.75" cy="255.75" r="233.75"></circle>
            <rect id="Rectangle" fill-opacity="0" fill="#FFFFFF" x="0" y="0" width="512" height="512"></rect>
            <path d="M378.344227,215.56517 C395.643933,268.802988 376.697794,327.126404 331.414826,360.031706 C286.131857,392.937007 224.812096,392.939573 179.526374,360.038062 C134.240652,327.136551 115.289632,268.81472 132.584883,215.575455 C149.880133,162.336191 199.487686,126.289262 255.462309,126.287565 L255.462309,87 C182.473793,87.016329 117.795459,134.029123 95.2505609,203.453244 C72.7056628,272.877366 97.4214505,348.924107 156.47291,391.825155 C215.52437,434.726202 295.481785,434.724829 354.531771,391.821754 C413.581758,348.918679 438.294935,272.871089 415.747653,203.447741 L378.344227,215.56517 Z" id="Path_40" fill="#FFFFFF" fill-rule="nonzero"></path>
            <path d="M339.865017,228 L377,215.790863 C359.83774,162.266074 310.584753,126.016335 255,126 L255,165.517057 C293.654994,165.525294 327.911933,190.722971 339.865017,227.939484" id="Path_41" fill="#FFFFFF" fill-rule="nonzero"></path>
        </g>
    </g>
</svg>