<?xml version="1.0" encoding="UTF-8"?>
<svg width="512px" height="512px" viewBox="0 0 512 512" version="1.1" xmlns="http://www.w3.org/2000/svg" xmlns:xlink="http://www.w3.org/1999/xlink">
    <title>cor-mark</title>
    <g id="Page-1" stroke="none" stroke-width="1" fill="none" fill-rule="evenodd">
        <g id="cor-mark">
            <rect id="Rectangle" fill-opacity="0" fill="#FFFFFF" x="0" y="0" width="512" height="512"></rect>
            <path d="M425.576919,199.735048 C449.575829,273.583844 423.292915,354.487125 360.474397,400.131688 C297.65588,445.77625 212.59042,445.77981 149.768082,400.140505 C86.945744,354.5012 60.6560588,273.600119 84.6487878,199.749315 C108.641517,125.898511 177.459288,75.8960433 255.109738,75.8936892 L255.109738,21.3959744 C153.85687,21.4186251 64.1322514,86.6323843 32.8569808,182.934 C1.58171018,279.235615 35.868534,384.723791 117.787307,444.233945 C199.706079,503.744098 310.626508,503.742194 392.543237,444.229227 C474.459966,384.716261 508.743168,279.226907 477.46459,182.926366 L425.576919,199.735048 Z" id="Path_40" fill="#000000" fill-rule="nonzero"></path>
            <path d="M373.689248,216.564611 L425.576919,199.714168 C401.596574,125.841918 332.776756,75.8118325 255.109738,75.7892875 L255.109738,130.328763 C309.121278,130.34013 356.987539,165.11671 373.689248,216.481089" id="Path_41" fill="#000000" fill-rule="nonzero"></path>
        </g>
    </g>
</svg>