<svg width="2100" height="2040" xmlns="http://www.w3.org/2000/svg">
    <g fill-rule="nonzero" fill="none">
        <path d="M1817.982 1447.079c-321.65 321.65-843.15 321.65-1164.81 0-321.66-321.65-321.65-843.15 0-1164.8s843.15-321.66 1164.81 0c321.66 321.66 321.65 843.15 0 1164.8m29.12 29.12c337.2-337.2 337.2-885.85 0-1223.04-337.2-337.19-885.85-337.2-1223.05 0-337.2 337.2-337.2 885.84 0 1223.04 337.2 337.2 885.85 337.2 1223.05 0" fill="#E5E0DF"/>
        <path d="M623.962 1476.109l29.12-29.12a865.86 865.86 0 01-14.67-15.05c-.45-.47-.88-.96-1.33-1.43-4.42-4.67-8.79-9.37-13.09-14.12-.12-.13-.22-.26-.34-.38-136.89-151.54-211.81-345.73-211.81-551.42 0-220 85.68-426.84 241.24-582.4l-29.03-29.03c-337.16 337.16-337.19 885.75-.09 1222.95" fill="#7FDEEA"/>
        <path d="M.002 864.739h411.84c-.07 347.25 221.04 670.22 569.15 783.33l-127.26 391.66C331.562 1870.079-.088 1385.619.002 864.739" fill="#70DB8C"/>
    </g>
</svg>
