<svg id="twitter" xmlns="http://www.w3.org/2000/svg" width="28" height="22.75" viewBox="0 0 28 22.75">
  <path id="Path_3306" data-name="Path 3306" d="M28,50.693a11.968,11.968,0,0,1-3.308.907,5.708,5.708,0,0,0,2.525-3.173,11.471,11.471,0,0,1-3.64,1.39,5.74,5.74,0,0,0-9.929,3.925,5.911,5.911,0,0,0,.133,1.309,16.248,16.248,0,0,1-11.832-6,5.742,5.742,0,0,0,1.764,7.672,5.669,5.669,0,0,1-2.593-.707v.063a5.767,5.767,0,0,0,4.6,5.64,5.729,5.729,0,0,1-1.5.189,5.075,5.075,0,0,1-1.087-.1,5.8,5.8,0,0,0,5.364,4,11.534,11.534,0,0,1-7.117,2.448A10.752,10.752,0,0,1,0,68.174,16.16,16.16,0,0,0,8.806,70.75c10.563,0,16.338-8.75,16.338-16.334,0-.254-.009-.5-.021-.742A11.452,11.452,0,0,0,28,50.693Z" transform="translate(0 -48)"/>
</svg>
